<svg version="1.1" viewBox="0.0 0.0 845.2178477690288 390.8582677165354" fill="none" stroke="none" stroke-linecap="square" stroke-miterlimit="10" xmlns:xlink="http://www.w3.org/1999/xlink" xmlns="http://www.w3.org/2000/svg"><clipPath id="p.0"><path d="m0 0l845.21783 0l0 390.85828l-845.21783 0l0 -390.85828z" clip-rule="nonzero"/></clipPath><g clip-path="url(#p.0)"><path fill="#000000" fill-opacity="0.0" d="m0 0l845.21783 0l0 390.85828l-845.21783 0z" fill-rule="evenodd"/><path fill="#cfe2f3" d="m351.09464 365.53018l-97.80629 -48.896667l-0.04095459 -181.79723l97.784256 -48.896652z" fill-rule="evenodd"/><path stroke="#000000" stroke-width="1.0" stroke-linejoin="round" stroke-linecap="butt" d="m351.09464 365.53018l-97.80629 -48.896667l-0.04095459 -181.79723l97.784256 -48.896652z" fill-rule="evenodd"/><path fill="#000000" d="m309.6821 269.8736l-2.015625 0l-0.017242432 -7.28125l6.375 0q1.3284912 1.671875 2.016388 3.453125q0.6722717 1.78125 0.672699 3.65625q5.79834E-4 2.53125 -1.0770874 4.609375q-1.0932922 2.0625 -3.139923 3.125q-2.0622559 1.046875 -4.593506 1.046875q-2.5 0 -4.672119 -1.046875q-2.1721191 -1.046875 -3.2194214 -3.015625q-1.0629578 -1.96875 -1.0635376 -4.53125q-3.9672852E-4 -1.875 0.6086426 -3.375q0.5933838 -1.5 1.6713257 -2.359375q1.0779419 -0.859375 2.8122253 -1.296875l0.56295776 2.046875q-1.3124084 0.390625 -2.0622864 0.96875q-0.7498779 0.5625 -1.2027588 1.640625q-0.45288086 1.0625 -0.4526062 2.359375q3.6621094E-4 1.5625 0.48498535 2.703125q0.46902466 1.125 1.2504272 1.828125q0.7657776 0.6875 1.6877441 1.078125q1.5939026 0.65625 3.4532776 0.65625q2.296875 0 3.843567 -0.78125q1.5466919 -0.796875 2.2963562 -2.3125q0.7496643 -1.515625 0.7492676 -3.203125q-3.3569336E-4 -1.484375 -0.56314087 -2.890625q-0.5628357 -1.40625 -1.2192383 -2.125l-3.1875 0l0.0011291504 5.046875zm2.714508 -18.886734l0.28076172 -2.171875q1.9063721 0.515625 2.9691772 1.90625q1.0471802 1.390625 1.0476685 3.5625q6.1035156E-4 2.7343903 -1.6708984 4.3437653q-1.6871338 1.59375 -4.734009 1.59375q-3.140625 0 -4.875366 -1.609375q-1.7347412 -1.625 -1.735321 -4.2031403q-5.493164E-4 -2.5 1.7022095 -4.078125q1.7027588 -1.59375 4.780884 -1.59375q0.1875 0 0.5625 0.015625l0.002105713 9.281265q2.0468445 -0.109375 3.1403503 -1.15625q1.0935364 -1.0468903 1.0931702 -2.6093903q-2.4414062E-4 -1.15625 -0.60980225 -1.96875q-0.6095581 -0.828125 -1.9534302 -1.3125zm-3.4046936 6.9375153l-0.0015563965 -6.9531403q-1.5624695 0.140625 -2.359192 0.796875q-1.2185364 1.0 -1.2181702 2.609375q3.3569336E-4 1.453125 0.9849243 2.4531403q0.9689636 0.984375 2.5939941 1.09375zm7.41922 -11.7539215l-12.453125 0l-4.272461E-4 -1.90625l1.78125 0q-2.0628052 -1.375 -2.063385 -3.953125q-2.4414062E-4 -1.125 0.40579224 -2.0625q0.40603638 -0.953125 1.0621643 -1.421875q0.65615845 -0.46875 1.5623779 -0.65625q0.5780945 -0.125 2.0468445 -0.125l7.65625 0l4.5776367E-4 2.109375l-7.578125 0q-1.28125 0 -1.921814 0.25q-0.64056396 0.25 -1.0154419 0.875q-0.3904724 0.625 -0.3902893 1.46875q3.0517578E-4 1.34375 0.8599243 2.328125q0.8595886 0.984375 3.2502136 0.984375l6.796875 0l4.5776367E-4 2.109375zm-4.0205383 -21.878906l0.28076172 -2.171875q1.9063721 0.515625 2.9691772 1.90625q1.0471802 1.390625 1.0476685 3.5625q6.1035156E-4 2.734375 -1.6708984 4.34375q-1.6871338 1.59375 -4.734009 1.59375q-3.140625 0 -4.875366 -1.609375q-1.7347412 -1.625 -1.735321 -4.203125q-5.493164E-4 -2.5 1.7022095 -4.078125q1.7027588 -1.59375 4.780884 -1.59375q0.1875 0 0.5625 0.015625l0.002105713 9.28125q2.0468445 -0.109375 3.1403503 -1.15625q1.0935364 -1.046875 1.0931702 -2.609375q-2.4414062E-4 -1.15625 -0.60980225 -1.96875q-0.6095886 -0.828125 -1.9534302 -1.3125zm-3.4046936 6.9375l-0.0015563965 -6.953125q-1.5624695 0.140625 -2.359192 0.796875q-1.2185364 1.0 -1.2181702 2.609375q3.3569336E-4 1.453125 0.9849243 2.453125q0.9689636 0.984375 2.5939941 1.09375zm7.41922 -11.738281l-12.453125 0l-4.272461E-4 -1.890625l1.890625 0q-1.3282776 -0.734375 -1.7502747 -1.34375q-0.4220276 -0.625 -0.4222107 -1.359375q-2.1362305E-4 -1.0625 0.6870117 -2.171875l1.9533081 0.734375q-0.4529419 0.765625 -0.4527893 1.546875q1.5258789E-4 0.6875 0.42218018 1.25q0.40637207 0.546875 1.1407776 0.78125q1.1250916 0.34375 2.4688416 0.34375l6.515625 0l4.5776367E-4 2.109375zm-1.5348816 -16.132812q0.98464966 1.171875 1.4067688 2.265625q0.40649414 1.078125 0.4067688 2.3125q4.5776367E-4 2.046875 -0.9992981 3.15625q-0.99975586 1.09375 -2.5622559 1.09375q-0.921875 0 -1.6719666 -0.40625q-0.75009155 -0.421875 -1.2033691 -1.09375q-0.4689026 -0.671875 -0.7034607 -1.515625q-0.15637207 -0.625 -0.31292725 -1.875q-0.31307983 -2.5625 -0.735199 -3.765625q-0.42190552 -0.015625 -0.5469055 -0.015625q-1.28125 0 -1.8123474 0.609375q-0.7185669 0.796875 -0.7182007 2.390625q3.3569336E-4 1.5 0.5317383 2.203125q0.5157776 0.703125 1.8439941 1.046875l-0.28079224 2.0625q-1.328186 -0.28125 -2.1408386 -0.921875q-0.8126526 -0.640625 -1.2504272 -1.859375q-0.45339966 -1.21875 -0.45376587 -2.828125q-3.3569336E-4 -1.59375 0.37442017 -2.59375q0.37478638 -1.0 0.9527893 -1.46875q0.56240845 -0.46875 1.4373779 -0.65625q0.5312195 -0.09375 1.9374695 -0.09375l2.8125 0q2.9375 0 3.7187195 -0.140625q0.7812195 -0.140625 1.4998779 -0.53125l4.8828125E-4 2.203125q-0.65615845 0.328125 -1.5311584 0.421875zm-4.718689 0.171875q0.46899414 1.15625 0.79763794 3.453125q0.18780518 1.296875 0.42230225 1.84375q0.23449707 0.53125 0.6876831 0.828125q0.45318604 0.28125 1.000061 0.28125q0.84375 0 1.4060974 -0.625q0.5623779 -0.640625 0.56207275 -1.875q-2.746582E-4 -1.21875 -0.5317383 -2.171875q-0.5314636 -0.953125 -1.4534302 -1.390625q-0.71881104 -0.34375 -2.109436 -0.34375l-0.78125 0zm4.3571167 -10.003906l1.8592834 -0.3125q0.20333862 0.890625 0.20349121 1.59375q2.746582E-4 1.15625 -0.35897827 1.796875q-0.3748474 0.625 -0.9685364 0.890625q-0.59368896 0.25 -2.484314 0.25l-7.171875 0l3.3569336E-4 1.546875l-1.640625 0l-3.3569336E-4 -1.546875l-3.078125 0l-1.2661133 -2.09375l4.34375 0l-4.5776367E-4 -2.125l1.640625 0l4.5776367E-4 2.125l7.28125 0q0.90625 0 1.171875 -0.109375q0.24996948 -0.125 0.40615845 -0.375q0.14056396 -0.25 0.14047241 -0.71875q-9.1552734E-5 -0.34375 -0.07833862 -0.921875zm-4.32843 -1.2773438q-3.46875 0 -5.1254272 -1.921875q-1.3909912 -1.609375 -1.39151 -3.921875q-5.79834E-4 -2.5625 1.686554 -4.1875q1.6871338 -1.625 4.640259 -1.625q2.40625 0 3.781433 0.71875q1.3751526 0.71875 2.1410828 2.09375q0.7659302 1.375 0.7662964 3.0q6.1035156E-4 2.625 -1.670929 4.234375q-1.6871338 1.609375 -4.827759 1.609375zm-4.8828125E-4 -2.171875q2.390625 0 3.5779114 -1.03125q1.1872559 -1.046875 1.1868896 -2.640625q-3.3569336E-4 -1.5625 -1.1880798 -2.609375q-1.2033691 -1.046875 -3.6564941 -1.046875q-2.3125 0 -3.4997559 1.0625q-1.1872559 1.046875 -1.1869202 2.59375q3.6621094E-4 1.59375 1.1881104 2.640625q1.1877136 1.03125 3.5783386 1.03125zm6.2160645 -11.941406l-12.453125 0l-4.272461E-4 -1.890625l1.890625 0q-1.3282776 -0.734375 -1.7503052 -1.34375q-0.42199707 -0.625 -0.42218018 -1.359375q-2.4414062E-4 -1.0625 0.6870117 -2.171875l1.9533081 0.734375q-0.4529724 0.765625 -0.4527893 1.546875q1.5258789E-4 0.6875 0.42214966 1.25q0.40637207 0.546875 1.1408081 0.78125q1.1250916 0.34375 2.4688416 0.34375l6.515625 0l4.5776367E-4 2.109375z" fill-rule="nonzero"/><path fill="#cfe2f3" d="m590.29333 287.71127l-0.001953125 -281.4488l87.81732 56.289764l0.001159668 168.8693z" fill-rule="evenodd"/><path stroke="#000000" stroke-width="1.0" stroke-linejoin="round" stroke-linecap="butt" d="m590.29333 287.71127l-0.001953125 -281.4488l87.81732 56.289764l0.001159668 168.8693z" fill-rule="evenodd"/><path fill="#000000" d="m642.74133 220.56215l-17.1875 0l-6.1035156E-5 -5.90625q0 -2.015625 0.25 -3.0625q0.34375 -1.484375 1.234375 -2.515625q1.140564 -1.359375 2.937439 -2.03125q1.78125 -0.6875 4.078125 -0.6875q1.953125 0 3.46875 0.46875q1.515625 0.453125 2.515625 1.171875q0.98443604 0.703125 1.546936 1.5625q0.5625 0.84375 0.859375 2.046875q0.296875 1.203125 0.296875 2.765625l6.1035156E-5 6.1875zm-2.03125 -2.265625l-6.1035156E-5 -3.671875q0 -1.703125 -0.3125 -2.65625q-0.3125 -0.96875 -0.890625 -1.546875q-0.8125 -0.8125 -2.171875 -1.265625q-1.375 -0.453125 -3.3125 -0.453125q-2.703125 0 -4.140625 0.890625q-1.453125 0.890625 -1.9375 2.15625q-0.359375 0.90625 -0.359375 2.9375l6.1035156E-5 3.609375l13.125 0zm-12.718872 -14.800781l-2.4375 0l0 -2.109375l2.4375 0l0 2.109375zm14.75 0l-12.453125 0l0 -2.109375l12.453125 0l0 2.109375zm-3.718811 -4.4726562l-0.328125 -2.09375q1.25 -0.171875 1.921875 -0.96875q0.671875 -0.8125 0.671875 -2.25q0 -1.453125 -0.59375 -2.15625q-0.59381104 -0.703125 -1.390686 -0.703125q-0.71875 0 -1.124939 0.625q-0.28125 0.421875 -0.71875 2.15625q-0.578125 2.3125 -1.0 3.21875q-0.4375 0.890625 -1.1875 1.359375q-0.765625 0.453125 -1.671875 0.453125q-0.828125 0 -1.53125 -0.375q-0.71875 -0.390625 -1.1875 -1.046875q-0.359375 -0.484375 -0.609375 -1.328125q-0.265625 -0.859375 -0.265625 -1.828125q0 -1.46875 0.421875 -2.578125q0.42181396 -1.109375 1.156189 -1.625q0.71875 -0.53125 1.921875 -0.734375l0.28131104 2.0625q-0.96875 0.140625 -1.5 0.8125q-0.546875 0.671875 -0.546875 1.90625q0 1.453125 0.484375 2.078125q0.484375 0.625 1.125 0.625q0.40625 0 0.734375 -0.265625q0.34375 -0.25 0.5625 -0.8125q0.125 -0.3125 0.546875 -1.859375q0.59375 -2.234375 0.98431396 -3.109375q0.375 -0.890625 1.109375 -1.390625q0.71875 -0.515625 1.796875 -0.515625q1.046875 0 1.984375 0.625q0.9375 0.609375 1.453186 1.765625q0.5 1.15625 0.5 2.625q0 2.421875 -1.0 3.703125q-1.015625 1.265625 -3.0 1.625zm-0.8438721 -20.96875l0.265625 -2.078125q2.15625 0.34375 3.375 1.75q1.203125 1.390625 1.203125 3.4375q6.1035156E-5 2.546875 -1.671814 4.109375q-1.671875 1.546875 -4.78125 1.546875q-2.015625 0 -3.53125 -0.671875q-1.515625 -0.671875 -2.265625 -2.03125q-0.765625 -1.359375 -0.76568604 -2.96875q0 -2.03125 1.03125 -3.3125q1.03125 -1.296875 2.90625 -1.65625l0.328125 2.046875q-1.265625 0.296875 -1.890625 1.046875q-0.640625 0.734375 -0.640625 1.796875q6.1035156E-5 1.59375 1.156311 2.59375q1.140625 0.984375 3.609375 0.984375q2.5 0 3.640625 -0.953125q1.140625 -0.96875 1.140564 -2.515625q0 -1.234375 -0.765625 -2.0625q-0.765625 -0.84375 -2.34375 -1.0625zm4.5625 -3.859375l-12.453125 0l-6.1035156E-5 -1.890625l1.890625 0q-1.328125 -0.734375 -1.75 -1.34375q-0.421875 -0.625 -0.421875 -1.359375q0 -1.0625 0.6875 -2.171875l1.953125 0.734375q-0.453125 0.765625 -0.453125 1.546875q0 0.6875 0.421875 1.25q0.40625 0.546875 1.140625 0.78125q1.125 0.34375 2.46875 0.34375l6.515625 0l6.1035156E-5 2.109375zm-14.750061 -8.0234375l-2.4375 0l-6.1035156E-5 -2.109375l2.4375 0l6.1035156E-5 2.109375zm14.75 0l-12.453125 0l-6.1035156E-5 -2.109375l12.453125 0l6.1035156E-5 2.109375zm-6.1035156E-5 -5.3164062l-12.453125 0l0 -1.890625l1.75 0q-0.90625 -0.59375 -1.46875 -1.5625q-0.5625 -0.96875 -0.56256104 -2.21875q0 -1.375 0.578125 -2.25q0.578125 -0.890625 1.609375 -1.265625q-2.1875 -1.46875 -2.1875 -3.84375q-6.1035156E-5 -1.84375 1.031189 -2.84375q1.03125 -1.0 3.15625 -1.0l8.546875 0l0 2.109375l-7.84375 0q-1.265625 0 -1.8125 0.203125q-0.5625 0.203125 -0.90625 0.75q-0.34375 0.53125 -0.34368896 1.25q0 1.3125 0.875 2.1875q0.875 0.859375 2.796875 0.859375l7.234375 0l0 2.109375l-8.09375 0q-1.40625 0 -2.109375 0.515625q-0.703125 0.515625 -0.703125 1.6875q6.1035156E-5 0.890625 0.46881104 1.65625q0.46875 0.75 1.375 1.09375q0.90625 0.34375 2.609375 0.34375l6.453125 0l0 2.109375zm-14.750122 -20.007812l-2.4375 0l-6.1035156E-5 -2.109375l2.4375 0l6.1035156E-5 2.109375zm14.75 0l-12.453125 0l-6.1035156E-5 -2.109375l12.453125 0l6.1035156E-5 2.109375zm-6.1035156E-5 -5.3164062l-12.453125 0l0 -1.90625l1.78125 0q-2.0625 -1.375 -2.062561 -3.953125q0 -1.125 0.40625 -2.0625q0.40625 -0.953125 1.0625 -1.421875q0.65625 -0.46875 1.5625 -0.65625q0.578125 -0.125 2.046875 -0.125l7.65625 0l0 2.109375l-7.578125 0q-1.28125 0 -1.921875 0.25q-0.640625 0.25 -1.015625 0.875q-0.390625 0.625 -0.390625 1.46875q6.1035156E-5 1.34375 0.85943604 2.328125q0.859375 0.984375 3.25 0.984375l6.796875 0l0 2.109375zm-1.5313721 -21.472656q0.984375 1.171875 1.40625 2.265625q0.40625 1.078125 0.40625 2.3125q0 2.046875 -0.99993896 3.15625q-1.0 1.09375 -2.5625 1.09375q-0.921875 0 -1.671875 -0.40625q-0.75 -0.421875 -1.203186 -1.09375q-0.46875 -0.671875 -0.703125 -1.515625q-0.15625 -0.625 -0.3125 -1.875q-0.3125 -2.5625 -0.734375 -3.765625q-0.421875 -0.015625 -0.546875 -0.015625q-1.28125 0 -1.8125 0.609375q-0.71875 0.796875 -0.71875 2.390625q0 1.5 0.53125 2.203125q0.515625 0.703125 1.84375 1.046875l-0.28118896 2.0625q-1.328125 -0.28125 -2.140625 -0.921875q-0.81256104 -0.640625 -1.250061 -1.859375q-0.453125 -1.21875 -0.453125 -2.828125q0 -1.59375 0.375 -2.59375q0.375 -1.0 0.95306396 -1.46875q0.5625 -0.46875 1.4375 -0.65625q0.53125 -0.09375 1.9375 -0.09375l2.8125 0q2.9375 0 3.71875 -0.140625q0.78125 -0.140625 1.5 -0.53125l6.1035156E-5 2.203125q-0.65625 0.328125 -1.53125 0.421875zm-4.71875 0.171875q0.46875 1.15625 0.796875 3.453125q0.1875 1.296875 0.421875 1.84375q0.234375 0.53125 0.6875 0.828125q0.453125 0.28125 1.0 0.28125q0.84375 0 1.40625 -0.625q0.5625 -0.640625 0.5625 -1.875q0 -1.21875 -0.53125 -2.171875q-0.53125 -0.953125 -1.453125 -1.390625q-0.71875 -0.34375 -2.109375 -0.34375l-0.78125 0zm4.359253 -10.003906l1.859375 -0.3125q0.20318604 0.890625 0.20318604 1.59375q0 1.15625 -0.359375 1.796875q-0.375 0.625 -0.96875 0.890625q-0.59375 0.25 -2.484375 0.25l-7.171875 0l0 1.546875l-1.640625 0l0 -1.546875l-3.078125 0l-1.265625 -2.09375l4.34375 0l-6.1035156E-5 -2.125l1.640625 0l6.1035156E-5 2.125l7.28125 0q0.90625 0 1.171875 -0.109375q0.25 -0.125 0.40625 -0.375q0.140625 -0.25 0.140625 -0.71875q0 -0.34375 -0.078186035 -0.921875zm-4.328125 -1.2773438q-3.46875 0 -5.125 -1.921875q-1.390625 -1.609375 -1.390625 -3.921875q-6.1035156E-5 -2.5625 1.687439 -4.1875q1.6875 -1.625 4.640625 -1.625q2.40625 0 3.78125 0.71875q1.375 0.71875 2.140625 2.09375q0.765625 1.375 0.76568604 3.0q0 2.625 -1.671875 4.234375q-1.6875 1.609375 -4.828125 1.609375zm0 -2.171875q2.390625 0 3.578125 -1.03125q1.1875 -1.046875 1.1875 -2.640625q-6.1035156E-5 -1.5625 -1.187561 -2.609375q-1.203125 -1.046875 -3.65625 -1.046875q-2.3125 0 -3.5 1.0625q-1.1875 1.046875 -1.187439 2.59375q0 1.59375 1.1875 2.640625q1.1875 1.03125 3.578125 1.03125zm6.218689 -11.941406l-12.453125 0l0 -1.890625l1.890625 0q-1.328186 -0.734375 -1.750061 -1.34375q-0.421875 -0.625 -0.421875 -1.359375q0 -1.0625 0.6875 -2.171875l1.953125 0.734375q-0.453125 0.765625 -0.453125 1.546875q0 0.6875 0.421875 1.25q0.40625 0.546875 1.140625 0.78125q1.125 0.34375 2.46875 0.34375l6.515625 0l6.1035156E-5 2.109375z" fill-rule="nonzero"/><path fill="#cfe2f3" d="m512.0236 146.98557l0 0c0 -7.914627 6.4160767 -14.330704 14.330688 -14.330704l0 0c3.8007812 0 7.445862 1.5098267 10.133362 4.197357c2.6875 2.6875305 4.1973877 6.332611 4.1973877 10.133347l0 0c0 7.914627 -6.4160767 14.330704 -14.3307495 14.330704l0 0c-7.914612 0 -14.330688 -6.4160767 -14.330688 -14.330704z" fill-rule="evenodd"/><path stroke="#000000" stroke-width="1.0" stroke-linejoin="round" stroke-linecap="butt" d="m512.0236 146.98557l0 0c0 -7.914627 6.4160767 -14.330704 14.330688 -14.330704l0 0c3.8007812 0 7.445862 1.5098267 10.133362 4.197357c2.6875 2.6875305 4.1973877 6.332611 4.1973877 10.133347l0 0c0 7.914627 -6.4160767 14.330704 -14.3307495 14.330704l0 0c-7.914612 0 -14.330688 -6.4160767 -14.330688 -14.330704z" fill-rule="evenodd"/><path fill="#000000" fill-opacity="0.0" d="m540.68506 146.98557l49.606262 0" fill-rule="evenodd"/><path stroke="#000000" stroke-width="1.0" stroke-linejoin="round" stroke-linecap="butt" d="m540.68506 146.98557l43.606262 0" fill-rule="evenodd"/><path fill="#000000" stroke="#000000" stroke-width="1.0" stroke-linecap="butt" d="m584.2913 148.6373l4.538086 -1.6517334l-4.538086 -1.6517334z" fill-rule="evenodd"/><path fill="#000000" fill-opacity="0.0" d="m351.06314 225.73491l175.2756 0l0 -64.409454" fill-rule="evenodd"/><path stroke="#000000" stroke-width="1.0" stroke-linejoin="round" stroke-linecap="butt" d="m351.06317 225.73491l175.27557 0l0 -58.409454" fill-rule="evenodd"/><path fill="#000000" stroke="#000000" stroke-width="1.0" stroke-linecap="butt" d="m527.9905 167.32545l-1.6517334 -4.538086l-1.6517334 4.538086z" fill-rule="evenodd"/><path fill="#f9cb9c" d="m405.85696 193.85301l66.61417 0l0 75.023636l-66.61417 0z" fill-rule="evenodd"/><path stroke="#000000" stroke-width="1.0" stroke-linejoin="round" stroke-linecap="butt" d="m405.85696 193.85301l66.61417 0l0 75.023636l-66.61417 0z" fill-rule="evenodd"/><path fill="#f9cb9c" d="m398.25067 184.50656l66.61417 0l0 75.02362l-66.61417 0z" fill-rule="evenodd"/><path stroke="#000000" stroke-width="1.0" stroke-linejoin="round" stroke-linecap="butt" d="m398.25067 184.50656l66.61417 0l0 75.02362l-66.61417 0z" fill-rule="evenodd"/><path fill="#f9cb9c" d="m389.01443 175.22047l66.61417 0l0 75.02362l-66.61417 0z" fill-rule="evenodd"/><path stroke="#000000" stroke-width="1.0" stroke-linejoin="round" stroke-linecap="butt" d="m389.01443 175.22047l66.61417 0l0 75.02362l-66.61417 0z" fill-rule="evenodd"/><path fill="#f9cb9c" d="m380.58398 165.1916l66.61417 0l0 75.02362l-66.61417 0z" fill-rule="evenodd"/><path stroke="#000000" stroke-width="1.0" stroke-linejoin="round" stroke-linecap="butt" d="m380.58398 165.1916l66.61417 0l0 75.02362l-66.61417 0z" fill-rule="evenodd"/><path fill="#000000" d="m391.11523 209.62341l0 -13.359375l9.015625 0l0 1.578125l-7.25 0l0 4.140625l6.265625 0l0 1.578125l-6.265625 0l0 6.0625l-1.765625 0zm17.411621 -1.1875q-0.921875 0.765625 -1.765625 1.09375q-0.828125 0.3125 -1.796875 0.3125q-1.59375 0 -2.453125 -0.78125q-0.859375 -0.78125 -0.859375 -1.984375q0 -0.71875 0.328125 -1.296875q0.328125 -0.59375 0.84375 -0.9375q0.53125 -0.359375 1.1875 -0.546875q0.46875 -0.125 1.453125 -0.25q1.984375 -0.234375 2.921875 -0.5625q0.015625 -0.34375 0.015625 -0.421875q0 -1.0 -0.46875 -1.421875q-0.625 -0.546875 -1.875 -0.546875q-1.15625 0 -1.703125 0.40625q-0.546875 0.40625 -0.8125 1.421875l-1.609375 -0.21875q0.21875 -1.015625 0.71875 -1.640625q0.5 -0.640625 1.453125 -0.984375q0.953125 -0.34375 2.1875 -0.34375q1.25 0 2.015625 0.296875q0.78125 0.28125 1.140625 0.734375q0.375 0.4375 0.515625 1.109375q0.078125 0.421875 0.078125 1.515625l0 2.1875q0 2.28125 0.109375 2.890625q0.109375 0.59375 0.40625 1.15625l-1.703125 0q-0.265625 -0.515625 -0.328125 -1.1875zm-0.140625 -3.671875q-0.890625 0.375 -2.671875 0.625q-1.015625 0.140625 -1.4375 0.328125q-0.421875 0.1875 -0.65625 0.53125q-0.21875 0.34375 -0.21875 0.78125q0 0.65625 0.5 1.09375q0.5 0.4375 1.453125 0.4375q0.9375 0 1.671875 -0.40625q0.75 -0.421875 1.09375 -1.140625q0.265625 -0.5625 0.265625 -1.640625l0 -0.609375zm4.203827 4.859375l0 -13.359375l1.640625 0l0 7.625l3.890625 -3.9375l2.109375 0l-3.6875 3.59375l4.0625 6.078125l-2.015625 0l-3.203125 -4.953125l-1.15625 1.125l0 3.828125l-1.640625 0zm15.953125 -3.109375l1.6875 0.203125q-0.40625 1.484375 -1.484375 2.3125q-1.078125 0.8125 -2.765625 0.8125q-2.125 0 -3.375 -1.296875q-1.234375 -1.3125 -1.234375 -3.671875q0 -2.453125 1.25 -3.796875q1.265625 -1.34375 3.265625 -1.34375q1.9375 0 3.15625 1.328125q1.234375 1.3125 1.234375 3.703125q0 0.15625 0 0.4375l-7.21875 0q0.09375 1.59375 0.90625 2.453125q0.8125 0.84375 2.015625 0.84375q0.90625 0 1.546875 -0.46875q0.640625 -0.484375 1.015625 -1.515625zm-5.390625 -2.65625l5.40625 0q-0.109375 -1.21875 -0.625 -1.828125q-0.78125 -0.953125 -2.03125 -0.953125q-1.125 0 -1.90625 0.765625q-0.765625 0.75 -0.84375 2.015625z" fill-rule="nonzero"/><path fill="#000000" fill-opacity="0.0" d="m464.86353 67.7874l61.480286 0l0 64.8819" fill-rule="evenodd"/><path stroke="#000000" stroke-width="1.0" stroke-linejoin="round" stroke-linecap="butt" d="m464.86353 67.7874l61.480286 0l0 58.88189" fill-rule="evenodd"/><path fill="#000000" stroke="#000000" stroke-width="1.0" stroke-linecap="butt" d="m524.6921 126.66929l1.6517334 4.5380936l1.6517334 -4.5380936z" fill-rule="evenodd"/><path fill="#b6d7a8" d="m405.85565 39.622047l66.61417 0l0 75.02362l-66.61417 0z" fill-rule="evenodd"/><path stroke="#000000" stroke-width="1.0" stroke-linejoin="round" stroke-linecap="butt" d="m405.85565 39.622047l66.61417 0l0 75.02362l-66.61417 0z" fill-rule="evenodd"/><path fill="#b6d7a8" d="m398.24933 30.27559l66.6142 0l0 75.02362l-66.6142 0z" fill-rule="evenodd"/><path stroke="#000000" stroke-width="1.0" stroke-linejoin="round" stroke-linecap="butt" d="m398.24933 30.27559l66.6142 0l0 75.02362l-66.6142 0z" fill-rule="evenodd"/><path fill="#b6d7a8" d="m389.01312 20.989502l66.61417 0l0 75.02362l-66.61417 0z" fill-rule="evenodd"/><path stroke="#000000" stroke-width="1.0" stroke-linejoin="round" stroke-linecap="butt" d="m389.01312 20.989502l66.61417 0l0 75.02362l-66.61417 0z" fill-rule="evenodd"/><path fill="#b6d7a8" d="m380.58267 10.960629l66.61417 0l0 75.02362l-66.61417 0z" fill-rule="evenodd"/><path stroke="#000000" stroke-width="1.0" stroke-linejoin="round" stroke-linecap="butt" d="m380.58267 10.960629l66.61417 0l0 75.02362l-66.61417 0z" fill-rule="evenodd"/><path fill="#000000" d="m391.05142 55.392437l0 -13.359375l5.921875 0q1.78125 0 2.703125 0.359375q0.9375 0.359375 1.484375 1.28125q0.5625 0.90625 0.5625 2.015625q0 1.40625 -0.921875 2.390625q-0.921875 0.96875 -2.84375 1.234375q0.703125 0.34375 1.078125 0.671875q0.765625 0.703125 1.453125 1.765625l2.328125 3.640625l-2.21875 0l-1.765625 -2.78125q-0.78125 -1.203125 -1.28125 -1.828125q-0.5 -0.640625 -0.90625 -0.890625q-0.390625 -0.265625 -0.796875 -0.359375q-0.296875 -0.078125 -0.984375 -0.078125l-2.046875 0l0 5.9375l-1.765625 0zm1.765625 -7.453125l3.796875 0q1.21875 0 1.890625 -0.25q0.6875 -0.265625 1.046875 -0.8125q0.359375 -0.546875 0.359375 -1.1875q0 -0.953125 -0.6875 -1.5625q-0.6875 -0.609375 -2.1875 -0.609375l-4.21875 0l0 4.421875zm18.097961 4.34375l1.6875 0.203125q-0.40625 1.484375 -1.484375 2.3125q-1.078125 0.8125 -2.765625 0.8125q-2.125 0 -3.375 -1.296875q-1.234375 -1.3125 -1.234375 -3.671875q0 -2.453125 1.25 -3.796875q1.265625 -1.34375 3.265625 -1.34375q1.9375 0 3.15625 1.328125q1.234375 1.3125 1.234375 3.703125q0 0.15625 0 0.4375l-7.21875 0q0.09375 1.59375 0.90625 2.453125q0.8125 0.84375 2.015625 0.84375q0.90625 0 1.546875 -0.46875q0.640625 -0.484375 1.015625 -1.515625zm-5.390625 -2.65625l5.40625 0q-0.109375 -1.21875 -0.625 -1.828125q-0.78125 -0.953125 -2.03125 -0.953125q-1.125 0 -1.90625 0.765625q-0.765625 0.75 -0.84375 2.015625zm15.453827 4.578125q-0.921875 0.765625 -1.765625 1.09375q-0.828125 0.3125 -1.796875 0.3125q-1.59375 0 -2.453125 -0.78125q-0.859375 -0.78125 -0.859375 -1.984375q0 -0.71875 0.328125 -1.296875q0.328125 -0.59375 0.84375 -0.9375q0.53125 -0.359375 1.1875 -0.546875q0.46875 -0.125 1.453125 -0.25q1.984375 -0.234375 2.921875 -0.5625q0.015625 -0.34375 0.015625 -0.421875q0 -1.0 -0.46875 -1.421875q-0.625 -0.546875 -1.875 -0.546875q-1.15625 0 -1.703125 0.40625q-0.546875 0.40625 -0.8125 1.421875l-1.609375 -0.21875q0.21875 -1.015625 0.71875 -1.640625q0.5 -0.640625 1.453125 -0.984375q0.953125 -0.34375 2.1875 -0.34375q1.25 0 2.015625 0.296875q0.78125 0.28125 1.140625 0.734375q0.375 0.4375 0.515625 1.109375q0.078125 0.421875 0.078125 1.515625l0 2.1875q0 2.28125 0.109375 2.890625q0.109375 0.59375 0.40625 1.15625l-1.703125 0q-0.265625 -0.515625 -0.328125 -1.1875zm-0.140625 -3.671875q-0.890625 0.375 -2.671875 0.625q-1.015625 0.140625 -1.4375 0.328125q-0.421875 0.1875 -0.65625 0.53125q-0.21875 0.34375 -0.21875 0.78125q0 0.65625 0.5 1.09375q0.5 0.4375 1.453125 0.4375q0.9375 0 1.671875 -0.40625q0.75 -0.421875 1.09375 -1.140625q0.265625 -0.5625 0.265625 -1.640625l0 -0.609375zm4.1569824 4.859375l0 -13.359375l1.640625 0l0 13.359375l-1.640625 0z" fill-rule="nonzero"/><path fill="#d9d9d9" d="m16.362598 209.36057l0 0c-1.4613571 -7.8923187 3.3365688 -15.705231 12.35784 -20.123444c9.021269 -4.4181976 20.683748 -4.6668396 30.038618 -0.6404114l0 0c3.3137817 -4.588913 9.378967 -7.757248 16.360954 -8.546631c6.9819946 -0.7893982 14.060722 0.8928833 19.095016 4.537964l0 0c2.8229218 -4.1605988 8.365761 -6.956009 14.661644 -7.3942413c6.295883 -0.43823242 12.453781 1.5427246 16.288551 5.239914l0 0c5.100006 -4.4102325 13.214249 -6.2671356 20.83165 -4.7671967c7.617386 1.499939 13.369797 6.087311 14.768097 11.77713l0 0c6.2483826 1.2525177 11.45314 4.436615 14.2695465 8.729599c2.8164215 4.2929688 2.9681854 9.273712 0.41610718 13.655365l0 0c6.152832 5.885025 7.5921326 13.726746 3.780777 20.59877c-3.8113403 6.87204 -12.30072 11.741928 -22.300049 12.792328c-0.07048035 6.449646 -4.8836365 12.367752 -12.584274 15.473251c-7.700638 3.1054993 -17.086258 2.9134216 -24.539253 -0.50219727c-3.1745834 7.724579 -12.109962 13.408234 -22.945732 14.595459c-10.83577 1.1871948 -21.629402 -2.3348694 -27.717651 -9.044586c-7.4629135 3.307251 -16.417793 4.2599487 -24.844593 2.643219c-8.4268 -1.6167297 -15.615692 -5.6667175 -19.945004 -11.236328l0 0c-7.6261635 0.65582275 -14.999609 -2.2478638 -18.460922 -7.269989c-3.461314 -5.02211 -2.273665 -11.093582 2.9735212 -15.201157l0 0c-6.8027353 -2.942459 -10.273901 -8.781296 -8.60342 -14.471771c1.6704807 -5.69046 8.104071 -9.9431 15.945905 -10.540314z" fill-rule="evenodd"/><path fill="#000000" fill-opacity="0.0" d="m8.869368 234.67682l0 0c3.2102308 1.3885651 6.9188013 2.0184479 10.627773 1.8050842m4.857958 20.666565c1.5949936 -0.13717651 3.158392 -0.42764282 4.6498737 -0.8639221m40.13749 9.456665c-1.1218109 -1.2362976 -2.0610504 -2.557434 -2.8017197 -3.9408264m53.46704 -1.61026l0 0c0.5787735 -1.4082947 0.95376587 -2.8577576 1.1187286 -4.324173m36.003387 -10.646347c0.075042725 -6.8666534 -5.231949 -13.153809 -13.641449 -16.16098m32.160553 -17.2294c-1.3618927 2.3382263 -3.4409637 4.41243 -6.0742188 6.0599823m-8.610153 -28.445557l0 0c0.2320404 0.9442291 0.33943176 1.9026489 0.3206787 2.861969m-35.919823 -9.871613l0 0c-1.2722015 1.1001282 -2.3203278 2.3295135 -3.11174 3.6498718m-27.838745 -1.4960175l0 0c-0.6779709 0.99923706 -1.1842422 2.05661 -1.5071335 3.1477509m-33.94936 0.86099243l0 0c1.9794846 0.85198975 3.8107758 1.8774567 5.4536476 3.0538635m-47.84956 17.710098l0 0c0.2014122 1.0877533 0.5196552 2.1621094 0.9517498 3.2129974" fill-rule="evenodd"/><path stroke="#000000" stroke-width="1.0" stroke-linejoin="round" stroke-linecap="butt" d="m16.362598 209.36057l0 0c-1.4613571 -7.8923187 3.3365688 -15.705231 12.35784 -20.123444c9.021269 -4.4181976 20.683748 -4.6668396 30.038618 -0.6404114l0 0c3.3137817 -4.588913 9.378967 -7.757248 16.360954 -8.546631c6.9819946 -0.7893982 14.060722 0.8928833 19.095016 4.537964l0 0c2.8229218 -4.1605988 8.365761 -6.956009 14.661644 -7.3942413c6.295883 -0.43823242 12.453781 1.5427246 16.288551 5.239914l0 0c5.100006 -4.4102325 13.214249 -6.2671356 20.83165 -4.7671967c7.617386 1.499939 13.369797 6.087311 14.768097 11.77713l0 0c6.2483826 1.2525177 11.45314 4.436615 14.2695465 8.729599c2.8164215 4.2929688 2.9681854 9.273712 0.41610718 13.655365l0 0c6.152832 5.885025 7.5921326 13.726746 3.780777 20.59877c-3.8113403 6.87204 -12.30072 11.741928 -22.300049 12.792328c-0.07048035 6.449646 -4.8836365 12.367752 -12.584274 15.473251c-7.700638 3.1054993 -17.086258 2.9134216 -24.539253 -0.50219727c-3.1745834 7.724579 -12.109962 13.408234 -22.945732 14.595459c-10.83577 1.1871948 -21.629402 -2.3348694 -27.717651 -9.044586c-7.4629135 3.307251 -16.417793 4.2599487 -24.844593 2.643219c-8.4268 -1.6167297 -15.615692 -5.6667175 -19.945004 -11.236328l0 0c-7.6261635 0.65582275 -14.999609 -2.2478638 -18.460922 -7.269989c-3.461314 -5.02211 -2.273665 -11.093582 2.9735212 -15.201157l0 0c-6.8027353 -2.942459 -10.273901 -8.781296 -8.60342 -14.471771c1.6704807 -5.69046 8.104071 -9.9431 15.945905 -10.540314z" fill-rule="evenodd"/><path stroke="#000000" stroke-width="1.0" stroke-linejoin="round" stroke-linecap="butt" d="m8.869368 234.67682l0 0c3.2102308 1.3885651 6.9188013 2.0184479 10.627773 1.8050842m4.857958 20.666565c1.5949936 -0.13717651 3.158392 -0.42764282 4.6498737 -0.8639221m40.13749 9.456665c-1.1218109 -1.2362976 -2.0610504 -2.557434 -2.8017197 -3.9408264m53.46704 -1.61026l0 0c0.5787735 -1.4082947 0.95376587 -2.8577576 1.1187286 -4.324173m36.003387 -10.646347c0.075042725 -6.8666534 -5.231949 -13.153809 -13.641449 -16.16098m32.160553 -17.2294c-1.3618927 2.3382263 -3.4409637 4.41243 -6.0742188 6.0599823m-8.610153 -28.445557l0 0c0.2320404 0.9442291 0.33943176 1.9026489 0.3206787 2.861969m-35.919823 -9.871613l0 0c-1.2722015 1.1001282 -2.3203278 2.3295135 -3.11174 3.6498718m-27.838745 -1.4960175l0 0c-0.6779709 0.99923706 -1.1842422 2.05661 -1.5071335 3.1477509m-33.94936 0.86099243l0 0c1.9794846 0.85198975 3.8107758 1.8774567 5.4536476 3.0538635m-47.84956 17.710098l0 0c0.2014122 1.0877533 0.5196552 2.1621094 0.9517498 3.2129974" fill-rule="evenodd"/><path fill="#000000" d="m53.76985 222.38818l0 -9.671875l1.46875 0l0 1.46875q0.5625 -1.03125 1.03125 -1.359375q0.484375 -0.328125 1.0625 -0.328125q0.828125 0 1.6875 0.53125l-0.5625 1.515625q-0.609375 -0.359375 -1.203125 -0.359375q-0.546875 0 -0.96875 0.328125q-0.421875 0.328125 -0.609375 0.890625q-0.28125 0.875 -0.28125 1.921875l0 5.0625l-1.625 0zm12.540802 -1.1875q-0.921875 0.765625 -1.765625 1.09375q-0.828125 0.3125 -1.796875 0.3125q-1.59375 0 -2.453125 -0.78125q-0.859375 -0.78125 -0.859375 -1.984375q0 -0.71875 0.328125 -1.296875q0.328125 -0.59375 0.84375 -0.9375q0.53125 -0.359375 1.1875 -0.546875q0.46875 -0.125 1.453125 -0.25q1.984375 -0.234375 2.921875 -0.5625q0.015625 -0.34375 0.015625 -0.421875q0 -1.0 -0.46875 -1.421875q-0.625 -0.546875 -1.875 -0.546875q-1.15625 0 -1.703125 0.40625q-0.546875 0.40625 -0.8125 1.421875l-1.609375 -0.21875q0.21875 -1.015625 0.71875 -1.640625q0.5 -0.640625 1.453125 -0.984375q0.953125 -0.34375 2.1875 -0.34375q1.25 0 2.015625 0.296875q0.78125 0.28125 1.140625 0.734375q0.375 0.4375 0.515625 1.109375q0.078125 0.421875 0.078125 1.515625l0 2.1875q0 2.28125 0.109375 2.890625q0.109375 0.59375 0.40625 1.15625l-1.703125 0q-0.265625 -0.515625 -0.328125 -1.1875zm-0.140625 -3.671875q-0.890625 0.375 -2.671875 0.625q-1.015625 0.140625 -1.4375 0.328125q-0.421875 0.1875 -0.65625 0.53125q-0.21875 0.34375 -0.21875 0.78125q0 0.65625 0.5 1.09375q0.5 0.4375 1.453125 0.4375q0.9375 0 1.671875 -0.40625q0.75 -0.421875 1.09375 -1.140625q0.265625 -0.5625 0.265625 -1.640625l0 -0.609375zm4.203842 4.859375l0 -9.671875l1.46875 0l0 1.375q1.0625 -1.59375 3.078125 -1.59375q0.875 0 1.609375 0.3125q0.734375 0.3125 1.09375 0.828125q0.375 0.5 0.515625 1.203125q0.09375 0.453125 0.09375 1.59375l0 5.953125l-1.640625 0l0 -5.890625q0 -1.0 -0.203125 -1.484375q-0.1875 -0.5 -0.671875 -0.796875q-0.484375 -0.296875 -1.140625 -0.296875q-1.046875 0 -1.8125 0.671875q-0.75 0.65625 -0.75 2.515625l0 5.28125l-1.640625 0zm16.641342 0l0 -1.21875q-0.90625 1.4375 -2.703125 1.4375q-1.15625 0 -2.125 -0.640625q-0.96875 -0.640625 -1.5 -1.78125q-0.53125 -1.140625 -0.53125 -2.625q0 -1.453125 0.484375 -2.625q0.484375 -1.1875 1.4375 -1.8125q0.96875 -0.625 2.171875 -0.625q0.875 0 1.546875 0.375q0.6875 0.359375 1.109375 0.953125l0 -4.796875l1.640625 0l0 13.359375l-1.53125 0zm-5.171875 -4.828125q0 1.859375 0.78125 2.78125q0.78125 0.921875 1.84375 0.921875q1.078125 0 1.828125 -0.875q0.75 -0.890625 0.75 -2.6875q0 -1.984375 -0.765625 -2.90625q-0.765625 -0.9375 -1.890625 -0.9375q-1.078125 0 -1.8125 0.890625q-0.734375 0.890625 -0.734375 2.8125zm8.672592 -0.015625q0 -2.6875 1.484375 -3.96875q1.25 -1.078125 3.046875 -1.078125q2.0 0 3.265625 1.3125q1.265625 1.296875 1.265625 3.609375q0 1.859375 -0.5625 2.9375q-0.5625 1.0625 -1.640625 1.65625q-1.0625 0.59375 -2.328125 0.59375q-2.03125 0 -3.28125 -1.296875q-1.25 -1.3125 -1.25 -3.765625zm1.6875 0q0 1.859375 0.796875 2.796875q0.8125 0.921875 2.046875 0.921875q1.21875 0 2.03125 -0.921875q0.8125 -0.9375 0.8125 -2.84375q0 -1.796875 -0.8125 -2.71875q-0.8125 -0.921875 -2.03125 -0.921875q-1.234375 0 -2.046875 0.921875q-0.796875 0.90625 -0.796875 2.765625zm9.297592 4.84375l0 -9.671875l1.46875 0l0 1.359375q0.453125 -0.71875 1.203125 -1.140625q0.765625 -0.4375 1.71875 -0.4375q1.078125 0 1.765625 0.453125q0.6875 0.4375 0.96875 1.234375q1.15625 -1.6875 2.984375 -1.6875q1.453125 0 2.21875 0.796875q0.78125 0.796875 0.78125 2.453125l0 6.640625l-1.640625 0l0 -6.09375q0 -0.984375 -0.15625 -1.40625q-0.15625 -0.4375 -0.578125 -0.703125q-0.421875 -0.265625 -0.984375 -0.265625q-1.015625 0 -1.6875 0.6875q-0.671875 0.671875 -0.671875 2.15625l0 5.625l-1.640625 0l0 -6.28125q0 -1.09375 -0.40625 -1.640625q-0.40625 -0.546875 -1.3125 -0.546875q-0.6875 0 -1.28125 0.359375q-0.59375 0.359375 -0.859375 1.0625q-0.25 0.703125 -0.25 2.03125l0 5.015625l-1.640625 0z" fill-rule="nonzero"/><path fill="#000000" d="m55.62594 239.26817l-1.171875 0l0 -7.46875q-0.421875 0.40625 -1.109375 0.8125q-0.6875 0.40625 -1.234375 0.609375l0 -1.140625q0.984375 -0.453125 1.71875 -1.109375q0.734375 -0.671875 1.03125 -1.28125l0.765625 0l0 9.578125zm2.9906006 -4.703125q0 -1.6875 0.34375 -2.71875q0.359375 -1.03125 1.046875 -1.59375q0.6875 -0.5625 1.71875 -0.5625q0.78125 0 1.359375 0.3125q0.578125 0.296875 0.953125 0.890625q0.375 0.578125 0.59375 1.421875q0.21875 0.828125 0.21875 2.25q0 1.671875 -0.359375 2.703125q-0.34375 1.03125 -1.03125 1.59375q-0.671875 0.5625 -1.734375 0.5625q-1.375 0 -2.15625 -0.984375q-0.953125 -1.1875 -0.953125 -3.875zm1.203125 0q0 2.34375 0.546875 3.125q0.5625 0.78125 1.359375 0.78125q0.8125 0 1.359375 -0.78125q0.5625 -0.78125 0.5625 -3.125q0 -2.359375 -0.5625 -3.125q-0.546875 -0.78125 -1.359375 -0.78125q-0.8125 0 -1.296875 0.6875q-0.609375 0.875 -0.609375 3.21875zm9.927963 1.078125l0 -1.328125q0.6875 -0.78125 1.8125 -0.78125q0.390625 0 0.8125 0.109375q0.4375 0.109375 1.234375 0.453125q0.453125 0.1875 0.671875 0.25q0.21875 0.046875 0.453125 0.046875q0.421875 0 0.875 -0.25q0.453125 -0.25 0.796875 -0.640625l0 1.390625q-0.40625 0.390625 -0.84375 0.5625q-0.421875 0.171875 -0.953125 0.171875q-0.390625 0 -0.75 -0.078125q-0.34375 -0.09375 -1.125 -0.4375q-0.765625 -0.359375 -1.28125 -0.359375q-0.421875 0 -0.796875 0.1875q-0.359375 0.171875 -0.90625 0.703125zm11.939529 3.625l0 -9.546875l1.296875 0l5.015625 7.5l0 -7.5l1.203125 0l0 9.546875l-1.296875 0l-5.015625 -7.5l0 7.5l-1.203125 0zm11.734528 2.8125q-0.984375 -1.234375 -1.65625 -2.875q-0.65625 -1.640625 -0.65625 -3.390625q0 -1.546875 0.5 -2.96875q0.578125 -1.640625 1.8125 -3.28125l0.828125 0q-0.78125 1.359375 -1.03125 1.9375q-0.40625 0.890625 -0.625 1.875q-0.28125 1.21875 -0.28125 2.4375q0 3.140625 1.9375 6.265625l-0.828125 0zm1.8602448 -7.515625q0 -1.6875 0.34375 -2.71875q0.359375 -1.03125 1.046875 -1.59375q0.6875 -0.5625 1.71875 -0.5625q0.78125 0 1.359375 0.3125q0.578125 0.296875 0.953125 0.890625q0.375 0.578125 0.59375 1.421875q0.21875 0.828125 0.21875 2.25q0 1.671875 -0.359375 2.703125q-0.34375 1.03125 -1.03125 1.59375q-0.671875 0.5625 -1.734375 0.5625q-1.375 0 -2.15625 -0.984375q-0.953125 -1.1875 -0.953125 -3.875zm1.203125 0q0 2.34375 0.546875 3.125q0.5625 0.78125 1.359375 0.78125q0.8125 0 1.359375 -0.78125q0.5625 -0.78125 0.5625 -3.125q0 -2.359375 -0.5625 -3.125q-0.546875 -0.78125 -1.359375 -0.78125q-0.8125 0 -1.296875 0.6875q-0.609375 0.875 -0.609375 3.21875zm6.8499756 4.703125l0 -1.328125l1.328125 0l0 1.328125q0 0.734375 -0.265625 1.1875q-0.25 0.453125 -0.8125 0.703125l-0.328125 -0.5q0.375 -0.171875 0.546875 -0.484375q0.171875 -0.3125 0.1875 -0.90625l-0.65625 0zm7.4842377 0l-1.171875 0l0 -7.46875q-0.421875 0.40625 -1.109375 0.8125q-0.6875 0.40625 -1.234375 0.609375l0 -1.140625q0.984375 -0.453125 1.71875 -1.109375q0.734375 -0.671875 1.03125 -1.28125l0.765625 0l0 9.578125zm4.0843506 2.8125l-0.828125 0q1.9375 -3.125 1.9375 -6.265625q0 -1.21875 -0.28125 -2.421875q-0.21875 -0.984375 -0.609375 -1.875q-0.265625 -0.59375 -1.046875 -1.953125l0.828125 0q1.234375 1.640625 1.8125 3.28125q0.5 1.421875 0.5 2.96875q0 1.75 -0.671875 3.390625q-0.671875 1.640625 -1.640625 2.875z" fill-rule="nonzero"/><path fill="#000000" fill-opacity="0.0" d="m181.0962 225.73528l72.157486 0" fill-rule="evenodd"/><path stroke="#000000" stroke-width="1.0" stroke-linejoin="round" stroke-linecap="butt" d="m181.0962 225.73528l66.157486 0" fill-rule="evenodd"/><path fill="#000000" stroke="#000000" stroke-width="1.0" stroke-linecap="butt" d="m247.2537 227.38701l4.538101 -1.6517334l-4.538101 -1.6517334z" fill-rule="evenodd"/><path fill="#000000" fill-opacity="0.0" d="m678.10925 146.98688l37.95276 0" fill-rule="evenodd"/><path stroke="#000000" stroke-width="1.0" stroke-linejoin="round" stroke-linecap="butt" d="m678.10925 146.98688l31.952759 0" fill-rule="evenodd"/><path fill="#000000" stroke="#000000" stroke-width="1.0" stroke-linecap="butt" d="m710.062 148.63861l4.538086 -1.6517334l-4.538086 -1.6517334z" fill-rule="evenodd"/><path fill="#000000" fill-opacity="0.0" d="m723.6562 124.29396l116.346436 0l0 40.472443l-116.346436 0z" fill-rule="evenodd"/><path fill="#000000" d="m734.12494 151.21396l0 -13.359375l5.921875 0q1.78125 0 2.703125 0.359375q0.9375 0.359375 1.484375 1.28125q0.5625 0.90625 0.5625 2.015625q0 1.40625 -0.921875 2.390625q-0.921875 0.96875 -2.84375 1.234375q0.703125 0.34375 1.078125 0.671875q0.765625 0.703125 1.453125 1.765625l2.328125 3.640625l-2.21875 0l-1.765625 -2.78125q-0.78125 -1.203125 -1.28125 -1.828125q-0.5 -0.640625 -0.90625 -0.890625q-0.390625 -0.265625 -0.796875 -0.359375q-0.296875 -0.078125 -0.984375 -0.078125l-2.046875 0l0 5.9375l-1.765625 0zm1.765625 -7.453125l3.796875 0q1.21875 0 1.890625 -0.25q0.6875 -0.265625 1.046875 -0.8125q0.359375 -0.546875 0.359375 -1.1875q0 -0.953125 -0.6875 -1.5625q-0.6875 -0.609375 -2.1875 -0.609375l-4.21875 0l0 4.421875zm18.0979 4.34375l1.6875 0.203125q-0.40625 1.484375 -1.484375 2.3125q-1.078125 0.8125 -2.765625 0.8125q-2.125 0 -3.375 -1.296875q-1.234375 -1.3125 -1.234375 -3.671875q0 -2.453125 1.25 -3.796875q1.265625 -1.34375 3.265625 -1.34375q1.9375 0 3.15625 1.328125q1.234375 1.3125 1.234375 3.703125q0 0.15625 0 0.4375l-7.21875 0q0.09375 1.59375 0.90625 2.453125q0.8125 0.84375 2.015625 0.84375q0.90625 0 1.546875 -0.46875q0.640625 -0.484375 1.015625 -1.515625zm-5.390625 -2.65625l5.40625 0q-0.109375 -1.21875 -0.625 -1.828125q-0.78125 -0.953125 -2.03125 -0.953125q-1.125 0 -1.90625 0.765625q-0.765625 0.75 -0.84375 2.015625zm15.453857 4.578125q-0.921875 0.765625 -1.765625 1.09375q-0.828125 0.3125 -1.796875 0.3125q-1.59375 0 -2.453125 -0.78125q-0.859375 -0.78125 -0.859375 -1.984375q0 -0.71875 0.328125 -1.296875q0.328125 -0.59375 0.84375 -0.9375q0.53125 -0.359375 1.1875 -0.546875q0.46875 -0.125 1.453125 -0.25q1.984375 -0.234375 2.921875 -0.5625q0.015625 -0.34375 0.015625 -0.421875q0 -1.0 -0.46875 -1.421875q-0.625 -0.546875 -1.875 -0.546875q-1.15625 0 -1.703125 0.40625q-0.546875 0.40625 -0.8125 1.421875l-1.609375 -0.21875q0.21875 -1.015625 0.71875 -1.640625q0.5 -0.640625 1.453125 -0.984375q0.953125 -0.34375 2.1875 -0.34375q1.25 0 2.015625 0.296875q0.78125 0.28125 1.140625 0.734375q0.375 0.4375 0.515625 1.109375q0.078125 0.421875 0.078125 1.515625l0 2.1875q0 2.28125 0.109375 2.890625q0.109375 0.59375 0.40625 1.15625l-1.703125 0q-0.265625 -0.515625 -0.328125 -1.1875zm-0.140625 -3.671875q-0.890625 0.375 -2.671875 0.625q-1.015625 0.140625 -1.4375 0.328125q-0.421875 0.1875 -0.65625 0.53125q-0.21875 0.34375 -0.21875 0.78125q0 0.65625 0.5 1.09375q0.5 0.4375 1.453125 0.4375q0.9375 0 1.671875 -0.40625q0.75 -0.421875 1.09375 -1.140625q0.265625 -0.5625 0.265625 -1.640625l0 -0.609375zm4.1569824 4.859375l0 -13.359375l1.640625 0l0 13.359375l-1.640625 0zm8.140625 0.234375l3.875 -13.8125l1.3125 0l-3.859375 13.8125l-1.328125 0zm11.897827 -0.234375l0 -13.359375l9.015625 0l0 1.578125l-7.25 0l0 4.140625l6.265625 0l0 1.578125l-6.265625 0l0 6.0625l-1.765625 0zm17.411621 -1.1875q-0.921875 0.765625 -1.765625 1.09375q-0.828125 0.3125 -1.796875 0.3125q-1.59375 0 -2.453125 -0.78125q-0.859375 -0.78125 -0.859375 -1.984375q0 -0.71875 0.328125 -1.296875q0.328125 -0.59375 0.84375 -0.9375q0.53125 -0.359375 1.1875 -0.546875q0.46875 -0.125 1.453125 -0.25q1.984375 -0.234375 2.921875 -0.5625q0.015625 -0.34375 0.015625 -0.421875q0 -1.0 -0.46875 -1.421875q-0.625 -0.546875 -1.875 -0.546875q-1.15625 0 -1.703125 0.40625q-0.546875 0.40625 -0.8125 1.421875l-1.609375 -0.21875q0.21875 -1.015625 0.71875 -1.640625q0.5 -0.640625 1.453125 -0.984375q0.953125 -0.34375 2.1875 -0.34375q1.25 0 2.015625 0.296875q0.78125 0.28125 1.140625 0.734375q0.375 0.4375 0.515625 1.109375q0.078125 0.421875 0.078125 1.515625l0 2.1875q0 2.28125 0.109375 2.890625q0.109375 0.59375 0.40625 1.15625l-1.703125 0q-0.265625 -0.515625 -0.328125 -1.1875zm-0.140625 -3.671875q-0.890625 0.375 -2.671875 0.625q-1.015625 0.140625 -1.4375 0.328125q-0.421875 0.1875 -0.65625 0.53125q-0.21875 0.34375 -0.21875 0.78125q0 0.65625 0.5 1.09375q0.5 0.4375 1.453125 0.4375q0.9375 0 1.671875 -0.40625q0.75 -0.421875 1.09375 -1.140625q0.265625 -0.5625 0.265625 -1.640625l0 -0.609375zm4.2038574 4.859375l0 -13.359375l1.640625 0l0 7.625l3.890625 -3.9375l2.109375 0l-3.6875 3.59375l4.0625 6.078125l-2.015625 0l-3.203125 -4.953125l-1.15625 1.125l0 3.828125l-1.640625 0zm15.953125 -3.109375l1.6875 0.203125q-0.40625 1.484375 -1.484375 2.3125q-1.078125 0.8125 -2.765625 0.8125q-2.125 0 -3.375 -1.296875q-1.234375 -1.3125 -1.234375 -3.671875q0 -2.453125 1.25 -3.796875q1.265625 -1.34375 3.265625 -1.34375q1.9375 0 3.15625 1.328125q1.234375 1.3125 1.234375 3.703125q0 0.15625 0 0.4375l-7.21875 0q0.09375 1.59375 0.90625 2.453125q0.8125 0.84375 2.015625 0.84375q0.90625 0 1.546875 -0.46875q0.640625 -0.484375 1.015625 -1.515625zm-5.390625 -2.65625l5.40625 0q-0.109375 -1.21875 -0.625 -1.828125q-0.78125 -0.953125 -2.03125 -0.953125q-1.125 0 -1.90625 0.765625q-0.765625 0.75 -0.84375 2.015625z" fill-rule="nonzero"/></g></svg>